<svg xmlns="http://www.w3.org/2000/svg" width="560" height="429" fill="none" viewBox="0 0 560 429">
  <path fill="#C2E5F5" fill-rule="evenodd" d="M558.002 183.196c-1.188 3.928-2.927 7.846-5.217 11.756-2.226 3.988-4.931 7.973-8.113 11.956-3.1 3.916-6.647 7.869-10.639 11.858a292.131 292.131 0 0 1-12.758 12.014 563.311 563.311 0 0 1-14.409 11.988 1414.91 1414.91 0 0 1-15.748 12.097 717.326 717.326 0 0 1-16.528 12.143l-17.087 12.206a1548.732 1548.732 0 0 0-17.117 12.424 1489.74 1489.74 0 0 0-16.68 12.459 693.13 693.13 0 0 0-16.025 12.514 620.801 620.801 0 0 0-15.152 12.585 575.154 575.154 0 0 0-14.278 12.657c-4.594 4.086-9.106 8.106-13.536 12.059a4679.398 4679.398 0 0 0-12.975 11.996c-4.265 3.82-8.406 7.541-12.423 11.163a920.547 920.547 0 0 1-12.335 10.511 192.183 192.183 0 0 1-11.877 9.562c-4.022 3.108-8.015 6-11.979 8.674a190.597 190.597 0 0 1-11.804 7.372 108.616 108.616 0 0 1-12.066 6.034 121.272 121.272 0 0 1-12.424 4.577 125.804 125.804 0 0 1-12.751 2.903c-4.294.745-8.59 1.233-12.889 1.465a98.017 98.017 0 0 1-13.028.027 131.519 131.519 0 0 1-13.072-1.294 249.949 249.949 0 0 1-12.773-2.697 123.459 123.459 0 0 1-12.505-3.882 122.416 122.416 0 0 1-12.14-4.949 170.345 170.345 0 0 1-11.558-6 177.903 177.903 0 0 1-10.664-6.914 130.23 130.23 0 0 1-9.986-7.846 123.477 123.477 0 0 1-8.997-8.643 96.518 96.518 0 0 1-8.131-9.34 161.157 161.157 0 0 1-7.047-10.019 123.491 123.491 0 0 1-6.522-10.635 169.51 169.51 0 0 1-5.904-11.132 550.437 550.437 0 0 1-5.598-11.767 756.876 756.876 0 0 1-5.446-12.083 407.323 407.323 0 0 0-5.482-12.635 1221.633 1221.633 0 0 0-5.547-12.969 548.82 548.82 0 0 0-5.955-13.223 598.12 598.12 0 0 0-6.582-13.493 652.482 652.482 0 0 0-7.206-13.765 715.583 715.583 0 0 0-8.08-13.836 3329.69 3329.69 0 0 0-8.489-14.09 7700.9 7700.9 0 0 0-8.83-14.007 988.694 988.694 0 0 0-8.706-14.108 376.683 376.683 0 0 1-8.241-14.288 382.203 382.203 0 0 1-7.71-14.135 317.16 317.16 0 0 1-6.493-14.145 140.93 140.93 0 0 1-5.184-14.038 100.36 100.36 0 0 1-3.655-13.911 97.865 97.865 0 0 1-1.567-13.85c-.126-4.547.11-9.065.712-13.553a72.474 72.474 0 0 1 3.113-13.355 86.13 86.13 0 0 1 5.61-13.04 105.977 105.977 0 0 1 7.736-12.427 136.326 136.326 0 0 1 9.518-11.73c3.454-3.815 7.18-7.46 11.178-10.937a167.267 167.267 0 0 1 12.466-9.842 142.118 142.118 0 0 1 13.631-8.649 148.635 148.635 0 0 1 14.454-7.373 133.476 133.476 0 0 1 14.905-5.8 167.429 167.429 0 0 1 15.232-4.127 142.31 142.31 0 0 1 15.313-2.253 154.702 154.702 0 0 1 15.175-.4 113.99 113.99 0 0 1 14.913 1.556c4.974.775 9.918 1.766 14.834 2.975a155.745 155.745 0 0 1 14.564 4.161 270.431 270.431 0 0 1 14.324 5.13 333.31 333.31 0 0 1 14.113 5.88 834.68 834.68 0 0 1 14.084 6.097 816.755 816.755 0 0 1 13.836 6.296 1637.95 1637.95 0 0 0 13.866 6.08 1478.72 1478.72 0 0 0 13.734 5.41 246.635 246.635 0 0 0 13.698 4.858 180.033 180.033 0 0 0 13.749 3.655 181.78 181.78 0 0 0 13.647 2.768c4.6.818 9.147 1.484 13.64 2 4.556.594 9.163 1.082 13.821 1.465 4.576.45 9.161.826 13.756 1.13 4.74.317 9.408.628 14.003.933 4.741.316 9.513.672 14.316 1.067 4.804.395 9.598.862 14.382 1.401 4.867.474 9.787 1.098 14.761 1.872 4.828.763 9.791 1.61 14.891 2.542a235.03 235.03 0 0 1 15.277 3.78 192.521 192.521 0 0 1 15.598 4.685 331.68 331.68 0 0 1 15.765 5.906 296.909 296.909 0 0 1 15.62 6.992 207.124 207.124 0 0 1 15.038 8.042c4.93 2.747 9.654 5.66 14.171 8.739a175.912 175.912 0 0 1 12.84 9.617c4.125 3.267 7.898 6.687 11.319 10.261 3.503 3.508 6.634 7.058 9.39 10.651 2.737 3.738 5.069 7.479 6.996 11.223 1.989 3.822 3.46 7.675 4.412 11.559a40.85 40.85 0 0 1 1.42 11.642c-.087 3.944-.724 7.88-1.913 11.807Z" clip-rule="evenodd"/>
</svg>
