<svg xmlns="http://www.w3.org/2000/svg" width="561" height="531" fill="none" viewBox="0 0 561 531">
  <path fill="#F5E0AB" fill-rule="evenodd" d="M556.504 125.33c1.899 5.066 3.125 10.356 3.68 15.872.604 5.697.661 11.538.17 17.523-.44 6.167-1.279 12.487-2.516 18.961a334.514 334.514 0 0 1-4.458 19.908 770.14 770.14 0 0 1-5.576 20.642 983.085 983.085 0 0 0-5.874 21.158 946.072 946.072 0 0 0-5.326 21.015 277.29 277.29 0 0 0-3.979 21.101 216.287 216.287 0 0 0-2.411 20.397 535.545 535.545 0 0 0-.842 19.692 495.434 495.434 0 0 0-.097 19.205c.092 6.32.133 12.458.124 18.414.108 6.023.132 11.922.072 17.696a192.572 192.572 0 0 1-.681 16.576 169.443 169.443 0 0 1-2.081 15.771 118.348 118.348 0 0 1-4.005 14.666c-1.692 4.836-3.76 9.38-6.203 13.632a95.335 95.335 0 0 1-8.577 12.498 82.57 82.57 0 0 1-10.402 11.22c-3.726 3.515-7.802 6.828-12.228 9.941a120.827 120.827 0 0 1-13.604 8.692 176.019 176.019 0 0 1-14.881 7.271 142.962 142.962 0 0 1-15.885 5.777 148.246 148.246 0 0 1-16.539 4.484 260.51 260.51 0 0 1-16.895 2.674 169.296 169.296 0 0 1-17.198 1.583c-5.9.278-11.826.466-17.776.563-5.951.097-11.927.102-17.928.017a870.045 870.045 0 0 1-18.354-.457c-6.184-.037-12.401-.017-18.651.061-6.366.01-12.799.136-19.298.376a432.8 432.8 0 0 0-19.519 1.167 276.864 276.864 0 0 0-20.311 2.546 377.658 377.658 0 0 0-20.655 3.953 1578.737 1578.737 0 0 0-20.876 4.743 1614.53 1614.53 0 0 1-21.074 5.088 817.565 817.565 0 0 1-21.051 4.643 296.318 296.318 0 0 1-20.556 3.781 225.398 225.398 0 0 1-20.213 2.373c-6.747.404-13.263.405-19.548.003-6.468-.353-12.697-1.257-18.687-2.711a94.047 94.047 0 0 1-17.628-5.772 108.63 108.63 0 0 1-16.293-8.902 112.492 112.492 0 0 1-14.884-11.762c-4.588-4.165-8.945-8.732-13.071-13.701a190.064 190.064 0 0 1-11.16-15.812 127.793 127.793 0 0 1-8.846-17.005 146.893 146.893 0 0 1-6.63-18.026 136.761 136.761 0 0 1-3.816-18.471A117.052 117.052 0 0 1 2.37 399.65a178.25 178.25 0 0 1 1.42-18.673 228.951 228.951 0 0 1 3.392-18.458 363.922 363.922 0 0 1 4.563-18.472 743.903 743.903 0 0 1 5.187-18.344 742.779 742.779 0 0 0 4.837-18.544c1.638-6.09 2.976-12.2 4.015-18.328a150.687 150.687 0 0 0 2.493-18.516c.44-6.166.49-12.328.15-18.486a132.222 132.222 0 0 0-2.37-18.557 248.433 248.433 0 0 0-4.088-18.399 617.81 617.81 0 0 0-5.284-17.94c-1.919-5.84-3.812-11.59-5.68-17.249a1313.362 1313.362 0 0 1-5.278-16.331c-1.584-5.343-2.851-10.428-3.802-15.254-1-5.008-1.568-9.69-1.702-14.047-.134-4.357.29-8.47 1.271-12.338.916-3.754 2.423-7.322 4.52-10.702 2.148-3.199 4.796-6.187 7.943-8.964 3.264-2.71 6.91-5.278 10.94-7.701 4.096-2.538 8.483-4.909 13.162-7.112a247.59 247.59 0 0 1 14.835-6.38 2325.4 2325.4 0 0 1 16.182-6.294c5.51-2.03 11.054-4.12 16.63-6.265 5.644-2.26 11.32-4.58 17.028-6.955a222.883 222.883 0 0 0 16.252-7.63 262.104 262.104 0 0 0 15.848-8.548 348.421 348.421 0 0 0 15.324-8.85 1989.128 1989.128 0 0 0 14.951-8.607c4.892-2.845 9.752-5.632 14.578-8.362a340.458 340.458 0 0 1 14.608-7.199 150.715 150.715 0 0 1 14.812-5.934A107.205 107.205 0 0 1 224.1 1.986C229.016.989 234.092.39 239.327.188c5.119-.27 10.397-.14 15.835.385 5.255.574 10.703 1.487 16.343 2.74a257.652 257.652 0 0 1 17.073 4.307c5.792 1.8 11.785 3.79 17.977 5.972a660.08 660.08 0 0 1 18.654 6.82 2232.64 2232.64 0 0 0 19.704 7.423 838.716 838.716 0 0 0 20.852 7.854 514.62 514.62 0 0 0 21.674 7.638 845.527 845.527 0 0 0 23.044 7.278 1556.583 1556.583 0 0 0 23.516 6.862 6691.61 6691.61 0 0 0 23.593 7.135 520.914 520.914 0 0 1 22.595 7.25 372.911 372.911 0 0 1 21.202 8.055c6.76 2.814 13.089 5.84 18.987 9.075 5.781 3.168 11.098 6.605 15.95 10.31 4.67 3.753 8.725 7.765 12.167 12.035 3.376 4.385 6.046 9.053 8.011 14.003Z" clip-rule="evenodd"/>
</svg>
